<svg xmlns="http://www.w3.org/2000/svg" viewBox="0 0 120 120" fill="none">
  <circle cx="60" cy="60" r="56" fill="#EEF2FF"/>
  <circle cx="60" cy="60" r="56" stroke="#C7D2FE" stroke-width="1.5"/>
  <path d="M52 30c2-1 6-2 10 0s8 4 10 8c1 3 0 6-2 8l-3 2c-1 1-1 3 0 5l4 6c2 3 1 6-1 8l-5 4c-2 2-5 2-7 0l-4-4c-2-2-5-2-7 0l-3 3c-2 2-4 3-7 2l-5-2c-3-1-4-4-3-7l2-6c1-3 0-6-2-8l-3-3c-2-2-2-5 0-7l4-4c3-3 7-4 11-3l5 1c2 0 4-1 5-3z" fill="#818CF8" opacity="0.6"/>
  <path d="M65 52c3-1 7 0 9 3l4 6c2 3 1 7-2 9l-6 4c-3 2-7 1-9-2l-4-6c-2-3-1-7 2-9l6-4z" fill="#6366F1" opacity="0.5"/>
  <path d="M42 62c1-2 4-3 6-2l8 4c2 1 3 4 2 6l-4 8c-1 2-4 3-6 2l-8-4c-2-1-3-4-2-6l4-8z" fill="#A5B4FC" opacity="0.5"/>
  <circle cx="55" cy="42" r="3" fill="#4F46E5"/>
  <circle cx="68" cy="48" r="2.5" fill="#4F46E5"/>
  <circle cx="48" cy="55" r="2" fill="#4F46E5"/>
  <circle cx="62" cy="65" r="2" fill="#6366F1"/>
  <circle cx="72" cy="58" r="1.5" fill="#6366F1"/>
</svg>
