<svg xmlns="http://www.w3.org/2000/svg" viewBox="0 0 120 120" fill="none">
  <circle cx="60" cy="60" r="56" fill="#ECFDF5"/>
  <circle cx="60" cy="60" r="56" stroke="#A7F3D0" stroke-width="1.5"/>
  <path d="M38 28c4-2 10-1 14 2l6 5c3 3 7 4 11 3l8-2c4-1 8 1 10 5l4 8c2 4 1 9-2 12l-6 6c-3 3-4 7-3 11l2 8c1 4-1 8-5 10l-8 4c-4 2-9 1-12-2l-6-6c-3-3-7-4-11-3l-8 2c-4 1-8-1-10-5l-4-8c-2-4-1-9 2-12l6-6c3-3 4-7 3-11l-2-8c-1-4 1-8 5-10l8-4z" fill="#34D399" opacity="0.3"/>
  <path d="M50 35c3-2 8 0 9 4l3 10c1 4 5 6 9 5l10-3c4-1 7 2 7 6v10c0 4-3 7-7 7h-10c-4 0-7 3-8 7l-3 10c-1 4-5 5-8 3l-8-6c-3-3-8-3-11 0l-7 6c-3 2-7 1-8-3l-3-10c-1-4 1-8 5-9l10-3c4-1 6-5 5-9l-3-10c-1-4 2-7 5-8l8-4z" fill="#10B981" opacity="0.35"/>
  <circle cx="60" cy="50" r="3" fill="#059669"/>
  <circle cx="75" cy="55" r="2.5" fill="#059669"/>
  <circle cx="50" cy="60" r="2" fill="#059669"/>
  <circle cx="65" cy="68" r="2" fill="#10B981"/>
  <circle cx="45" cy="45" r="1.5" fill="#10B981"/>
</svg>
