<svg xmlns="http://www.w3.org/2000/svg" viewBox="0 0 120 120" fill="none">
  <circle cx="60" cy="60" r="56" fill="#FFF7ED"/>
  <circle cx="60" cy="60" r="56" stroke="#FED7AA" stroke-width="1.5"/>
  <path d="M45 38c3-4 9-5 13-2l6 4c3 2 7 2 10-1l5-4c4-3 9-2 12 2l4 6c2 4 1 9-3 11l-7 4c-3 2-5 5-4 9l2 7c1 4-1 9-5 11l-7 3c-4 1-8-1-10-5l-3-7c-2-3-5-5-9-4l-7 2c-4 1-9-1-11-5l-3-7c-1-4 1-8 5-10l7-3c3-2 5-5 4-9l-2-7c-1-4 1-8 4-11z" fill="#F59E0B" opacity="0.25"/>
  <path d="M52 48c2-3 6-3 9-1l5 4c2 2 5 2 8 0l4-3c3-2 6-1 8 2l3 5c1 3 0 6-2 8l-5 3c-3 2-4 5-3 8l2 5c1 3 0 6-4 7l-5 2c-3 1-6-1-7-4l-2-5c-1-3-4-5-7-4l-5 1c-3 1-6-1-7-4l-2-5c-1-3 1-6 4-7l5-2c3-1 5-4 4-7l-2-5c-1-3 1-6 3-7z" fill="#D97706" opacity="0.3"/>
  <circle cx="58" cy="52" r="3" fill="#B45309"/>
  <circle cx="70" cy="58" r="2.5" fill="#B45309"/>
  <circle cx="52" cy="65" r="2" fill="#D97706"/>
  <circle cx="65" cy="72" r="2" fill="#D97706"/>
</svg>
