<svg xmlns="http://www.w3.org/2000/svg" viewBox="0 0 120 120" fill="none">
  <circle cx="60" cy="60" r="56" fill="#EFF6FF"/>
  <circle cx="60" cy="60" r="56" stroke="#BFDBFE" stroke-width="1.5"/>
  <path d="M55 20c3-1 6 1 7 4l3 10c1 3 4 5 7 5h4c4 0 7 2 8 6l2 8c1 4-1 7-4 9l-6 3c-3 1-5 4-5 7v4c0 4-2 8-6 9l-8 2c-4 1-8-1-9-5l-3-8c-1-3-4-5-7-5l-8-1c-4 0-7-3-7-7v-8c0-4 2-7 6-8l8-2c3-1 5-3 6-6l3-8c1-4 4-6 7-7z" fill="#3B82F6" opacity="0.25"/>
  <path d="M58 40c2-1 5 0 6 3l2 7c1 3 3 5 6 5l7 1c3 0 5 2 5 5v7c0 3-2 5-5 6l-7 2c-3 1-5 3-5 6l-1 7c0 3-2 5-5 5h-7c-3 0-5-2-5-5l-1-7c-1-3-3-5-6-6l-7-2c-3-1-5-3-5-6v-7c0-3 3-5 5-5l7-1c3 0 5-2 6-5l2-7c1-3 4-4 6-3z" fill="#2563EB" opacity="0.3"/>
  <circle cx="58" cy="45" r="3" fill="#1D4ED8"/>
  <circle cx="65" cy="58" r="2.5" fill="#1D4ED8"/>
  <circle cx="55" cy="68" r="2" fill="#2563EB"/>
  <circle cx="50" cy="55" r="2" fill="#2563EB"/>
  <circle cx="62" cy="75" r="1.5" fill="#3B82F6"/>
</svg>
