<svg xmlns="http://www.w3.org/2000/svg" viewBox="0 0 600 400" fill="none">
  <rect width="600" height="400" fill="#F0F4FF"/>
  <circle cx="300" cy="180" r="120" fill="#818CF8" opacity="0.15"/>
  <circle cx="300" cy="180" r="80" fill="#4F46E5" opacity="0.2"/>
  <rect x="250" y="110" width="100" height="160" rx="16" fill="#FFFFFF" stroke="#4F46E5" stroke-width="3"/>
  <rect x="265" y="130" width="70" height="10" rx="5" fill="#E0E7FF"/>
  <rect x="265" y="150" width="50" height="6" rx="3" fill="#C7D2FE"/>
  <rect x="265" y="165" width="60" height="6" rx="3" fill="#C7D2FE"/>
  <circle cx="300" cy="240" r="12" fill="#4F46E5" opacity="0.3"/>
  <rect x="265" y="195" width="70" height="25" rx="6" fill="#4F46E5"/>
  <text x="300" y="212" text-anchor="middle" font-family="sans-serif" font-size="10" font-weight="bold" fill="white">eSIM</text>
  <circle cx="160" cy="120" r="25" fill="#06B6D4" opacity="0.3"/>
  <circle cx="440" cy="140" r="20" fill="#10B981" opacity="0.3"/>
  <circle cx="180" cy="280" r="15" fill="#F59E0B" opacity="0.3"/>
  <circle cx="420" cy="270" r="18" fill="#818CF8" opacity="0.25"/>
  <path d="M130 200 Q150 180 170 200 Q190 220 210 200" stroke="#06B6D4" stroke-width="2" fill="none" opacity="0.5"/>
  <path d="M390 180 Q410 160 430 180 Q450 200 470 180" stroke="#10B981" stroke-width="2" fill="none" opacity="0.5"/>
  <text x="300" y="340" text-anchor="middle" font-family="sans-serif" font-size="18" font-weight="bold" fill="#4F46E5">Stay Connected Worldwide</text>
  <text x="300" y="365" text-anchor="middle" font-family="sans-serif" font-size="12" fill="#64748B">Instant eSIM • 190+ Countries</text>
</svg>
