<svg xmlns="http://www.w3.org/2000/svg" viewBox="0 0 780 500" width="80" height="50">
  <rect width="780" height="500" rx="40" fill="#FFFFFF"/>
  <path d="M293.2 348.7l33.4-195.8h53.3l-33.4 195.8h-53.3zm224.8-191c-10.6-4-27.2-8.3-47.9-8.3-52.8 0-90 26.6-90.2 64.7-.3 28.2 26.5 43.9 46.8 53.3 20.8 9.6 27.8 15.8 27.7 24.4-.1 13.2-16.6 19.2-32 19.2-21.4 0-32.7-3-50.3-10.2l-6.9-3.1-7.5 44c12.5 5.5 35.6 10.2 59.6 10.5 56.2 0 92.7-26.3 93.1-67 .2-22.3-14-39.3-44.8-53.3-18.7-9.1-30.1-15.1-30-24.3 0-8.1 9.7-16.8 30.6-16.8 17.5-.3 30.1 3.5 40 7.5l4.8 2.3 7.2-42.8h.2zm139-4.8h-41.3c-12.8 0-22.4 3.5-28 16.3l-79.3 179.5h56.1l11.2-29.4h68.6l6.5 29.4h49.5l-43.3-195.8zm-65.8 126.4c4.4-11.3 21.5-54.7 21.5-54.7-.3.5 4.4-11.4 7.1-18.8l3.6 17s10.3 47.3 12.5 57.3h-44.7v-.8h0zM246.8 152.9l-52.3 133.5-5.6-27.1c-9.7-31.2-39.9-65-73.7-81.9l47.9 171.1 56.5-.1 84.1-195.5h-56.9v.1z" fill="#1A1F71"/>
  <path d="M146.9 152.9H58.9l-.7 4c67 16.2 111.4 55.4 129.7 102.5l-18.7-90.2c-3.2-12.3-12.8-16-22.3-16.3z" fill="#F9A533"/>
</svg>
